<svg xmlns="http://www.w3.org/2000/svg" width="32" height="32" viewBox="0 0 32 32">
  <rect width="32" height="32" rx="7" fill="#ffb000"/>
  <path fill="#0c0c0e" d="M9.4 7.2h7.1c2.0 0 3.6 0.45 4.7 1.35 1.1 0.9 1.65 2.1 1.65 3.6 0 0.95-0.25 1.78-0.74 2.48-0.42 0.6-1.0 1.05-1.74 1.36 0.98 0.27 1.74 0.76 2.27 1.47 0.54 0.72 0.8 1.62 0.8 2.7 0 1.6-0.58 2.85-1.74 3.77-1.16 0.92-2.83 1.38-5.0 1.38H9.4zM13.0 10.2v4.0h3.0c0.86 0 1.52-0.18 1.98-0.54 0.46-0.36 0.69-0.87 0.69-1.51 0-0.65-0.22-1.14-0.67-1.46-0.45-0.33-1.12-0.49-2.0-0.49zM13.0 17.0v4.8h3.35c0.92 0 1.63-0.2 2.12-0.6 0.49-0.41 0.74-0.99 0.74-1.74 0-1.64-0.94-2.46-2.82-2.46z"/>
</svg>
